<?xml version="1.0" encoding="UTF-8" ?>
<svg version="1.1" width="32" height="32" xmlns="http://www.w3.org/2000/svg" shape-rendering="crispEdges">
<rect x="22" y="13" width="1" height="1" fill="#000000" />
<rect x="20" y="14" width="2" height="1" fill="#000000" />
<rect x="22" y="14" width="1" height="1" fill="#555555" />
<rect x="23" y="14" width="1" height="1" fill="#000000" />
<rect x="10" y="15" width="2" height="1" fill="#000000" />
<rect x="18" y="15" width="2" height="1" fill="#000000" />
<rect x="20" y="15" width="1" height="1" fill="#656565" />
<rect x="21" y="15" width="3" height="1" fill="#BABABA" />
<rect x="24" y="15" width="1" height="3" fill="#000000" />
<rect x="6" y="16" width="1" height="1" fill="#000000" />
<rect x="10" y="16" width="1" height="2" fill="#000000" />
<rect x="11" y="16" width="1" height="2" fill="#656565" />
<rect x="12" y="16" width="1" height="1" fill="#000000" />
<rect x="18" y="16" width="1" height="1" fill="#000000" />
<rect x="19" y="16" width="1" height="1" fill="#555555" />
<rect x="20" y="16" width="3" height="1" fill="#BABABA" />
<rect x="23" y="16" width="1" height="2" fill="#555555" />
<rect x="5" y="17" width="1" height="2" fill="#000000" />
<rect x="6" y="17" width="1" height="1" fill="#656565" />
<rect x="7" y="17" width="1" height="1" fill="#000000" />
<rect x="12" y="17" width="1" height="1" fill="#555555" />
<rect x="13" y="17" width="3" height="1" fill="#000000" />
<rect x="17" y="17" width="1" height="1" fill="#000000" />
<rect x="18" y="17" width="1" height="1" fill="#757575" />
<rect x="19" y="17" width="2" height="2" fill="#BABABA" />
<rect x="21" y="17" width="1" height="1" fill="#757575" />
<rect x="22" y="17" width="1" height="3" fill="#BABABA" />
<rect x="6" y="18" width="1" height="7" fill="#BABABA" />
<rect x="7" y="18" width="1" height="1" fill="#656565" />
<rect x="8" y="18" width="2" height="1" fill="#000000" />
<rect x="10" y="18" width="4" height="1" fill="#BABABA" />
<rect x="14" y="18" width="1" height="1" fill="#656565" />
<rect x="15" y="18" width="2" height="1" fill="#000000" />
<rect x="17" y="18" width="1" height="1" fill="#555555" />
<rect x="18" y="18" width="1" height="3" fill="#BABABA" />
<rect x="21" y="18" width="1" height="2" fill="#BABABA" />
<rect x="23" y="18" width="1" height="1" fill="#656565" />
<rect x="24" y="18" width="1" height="1" fill="#555555" />
<rect x="25" y="18" width="1" height="1" fill="#000000" />
<rect x="4" y="19" width="1" height="3" fill="#000000" />
<rect x="5" y="19" width="1" height="1" fill="#BABABA" />
<rect x="7" y="19" width="4" height="1" fill="#BABABA" />
<rect x="11" y="19" width="3" height="1" fill="#8A8A8A" />
<rect x="14" y="19" width="1" height="2" fill="#000000" />
<rect x="15" y="19" width="1" height="1" fill="#CACACA" />
<rect x="16" y="19" width="1" height="1" fill="#656565" />
<rect x="17" y="19" width="1" height="4" fill="#000000" />
<rect x="19" y="19" width="1" height="1" fill="#757575" />
<rect x="20" y="19" width="1" height="1" fill="#BABABA" />
<rect x="23" y="19" width="2" height="1" fill="#BABABA" />
<rect x="25" y="19" width="1" height="1" fill="#555555" />
<rect x="26" y="19" width="2" height="1" fill="#000000" />
<rect x="5" y="20" width="1" height="2" fill="#656565" />
<rect x="7" y="20" width="1" height="2" fill="#8A8A8A" />
<rect x="8" y="20" width="1" height="1" fill="#555555" />
<rect x="9" y="20" width="2" height="1" fill="#000000" />
<rect x="11" y="20" width="1" height="1" fill="#555555" />
<rect x="12" y="20" width="2" height="1" fill="#BABABA" />
<rect x="15" y="20" width="1" height="1" fill="#656565" />
<rect x="16" y="20" width="1" height="1" fill="#8A8A8A" />
<rect x="19" y="20" width="1" height="1" fill="#000000" />
<rect x="21" y="20" width="2" height="1" fill="#000000" />
<rect x="23" y="20" width="1" height="1" fill="#757575" />
<rect x="24" y="20" width="2" height="1" fill="#BABABA" />
<rect x="26" y="20" width="1" height="3" fill="#000000" />
<rect x="27" y="20" width="1" height="1" fill="#757575" />
<rect x="28" y="20" width="1" height="2" fill="#000000" />
<rect x="8" y="21" width="1" height="2" fill="#000000" />
<rect x="9" y="21" width="1" height="1" fill="#656565" />
<rect x="10" y="21" width="1" height="1" fill="#CACACA" />
<rect x="11" y="21" width="1" height="1" fill="#000000" />
<rect x="12" y="21" width="1" height="1" fill="#555555" />
<rect x="13" y="21" width="1" height="1" fill="#000000" />
<rect x="14" y="21" width="1" height="1" fill="#656565" />
<rect x="15" y="21" width="1" height="1" fill="#8A8A8A" />
<rect x="16" y="21" width="1" height="5" fill="#BABABA" />
<rect x="18" y="21" width="1" height="1" fill="#000000" />
<rect x="19" y="21" width="1" height="1" fill="#656565" />
<rect x="20" y="21" width="1" height="1" fill="#000000" />
<rect x="21" y="21" width="1" height="3" fill="#656565" />
<rect x="22" y="21" width="1" height="2" fill="#000000" />
<rect x="23" y="21" width="2" height="1" fill="#BABABA" />
<rect x="25" y="21" width="1" height="1" fill="#555555" />
<rect x="27" y="21" width="1" height="3" fill="#BABABA" />
<rect x="2" y="22" width="2" height="1" fill="#000000" />
<rect x="4" y="22" width="1" height="1" fill="#656565" />
<rect x="5" y="22" width="1" height="2" fill="#BABABA" />
<rect x="7" y="22" width="1" height="1" fill="#555555" />
<rect x="9" y="22" width="1" height="7" fill="#BABABA" />
<rect x="10" y="22" width="2" height="1" fill="#8A8A8A" />
<rect x="12" y="22" width="1" height="1" fill="#000000" />
<rect x="13" y="22" width="1" height="1" fill="#656565" />
<rect x="14" y="22" width="1" height="1" fill="#8A8A8A" />
<rect x="15" y="22" width="1" height="3" fill="#BABABA" />
<rect x="18" y="22" width="3" height="1" fill="#BABABA" />
<rect x="23" y="22" width="1" height="1" fill="#000000" />
<rect x="24" y="22" width="1" height="1" fill="#555555" />
<rect x="25" y="22" width="1" height="1" fill="#000000" />
<rect x="28" y="22" width="1" height="1" fill="#757575" />
<rect x="29" y="22" width="1" height="2" fill="#000000" />
<rect x="2" y="23" width="1" height="1" fill="#000000" />
<rect x="3" y="23" width="1" height="1" fill="#656565" />
<rect x="4" y="23" width="1" height="3" fill="#BABABA" />
<rect x="7" y="23" width="1" height="3" fill="#000000" />
<rect x="8" y="23" width="1" height="1" fill="#656565" />
<rect x="11" y="23" width="2" height="2" fill="#BABABA" />
<rect x="13" y="23" width="1" height="1" fill="#000000" />
<rect x="14" y="23" width="1" height="2" fill="#BABABA" />
<rect x="17" y="23" width="2" height="1" fill="#BABABA" />
<rect x="19" y="23" width="1" height="1" fill="#CACACA" />
<rect x="20" y="23" width="1" height="4" fill="#BABABA" />
<rect x="22" y="23" width="1" height="1" fill="#656565" />
<rect x="23" y="23" width="1" height="1" fill="#BABABA" />
<rect x="24" y="23" width="1" height="2" fill="#000000" />
<rect x="25" y="23" width="2" height="1" fill="#757575" />
<rect x="28" y="23" width="1" height="1" fill="#BABABA" />
<rect x="1" y="24" width="1" height="4" fill="#000000" />
<rect x="2" y="24" width="1" height="2" fill="#656565" />
<rect x="3" y="24" width="1" height="5" fill="#BABABA" />
<rect x="5" y="24" width="1" height="1" fill="#8A8A8A" />
<rect x="8" y="24" width="1" height="1" fill="#454545" />
<rect x="10" y="24" width="1" height="1" fill="#BABABA" />
<rect x="13" y="24" width="1" height="1" fill="#BABABA" />
<rect x="17" y="24" width="1" height="4" fill="#BABABA" />
<rect x="18" y="24" width="1" height="1" fill="#CACACA" />
<rect x="19" y="24" width="1" height="1" fill="#454545" />
<rect x="21" y="24" width="2" height="2" fill="#BABABA" />
<rect x="23" y="24" width="1" height="1" fill="#656565" />
<rect x="25" y="24" width="2" height="1" fill="#BABABA" />
<rect x="27" y="24" width="2" height="1" fill="#AAAAAA" />
<rect x="29" y="24" width="1" height="2" fill="#BABABA" />
<rect x="30" y="24" width="1" height="2" fill="#000000" />
<rect x="5" y="25" width="1" height="1" fill="#BABABA" />
<rect x="6" y="25" width="1" height="3" fill="#000000" />
<rect x="8" y="25" width="1" height="1" fill="#000000" />
<rect x="10" y="25" width="1" height="1" fill="#454545" />
<rect x="11" y="25" width="1" height="1" fill="#CACACA" />
<rect x="12" y="25" width="1" height="3" fill="#BABABA" />
<rect x="13" y="25" width="1" height="1" fill="#8A8A8A" />
<rect x="14" y="25" width="1" height="1" fill="#CACACA" />
<rect x="15" y="25" width="1" height="1" fill="#454545" />
<rect x="18" y="25" width="1" height="1" fill="#454545" />
<rect x="19" y="25" width="1" height="1" fill="#8A8A8A" />
<rect x="23" y="25" width="1" height="2" fill="#BABABA" />
<rect x="24" y="25" width="1" height="2" fill="#656565" />
<rect x="25" y="25" width="1" height="2" fill="#000000" />
<rect x="26" y="25" width="1" height="5" fill="#BABABA" />
<rect x="27" y="25" width="1" height="1" fill="#AAAAAA" />
<rect x="28" y="25" width="1" height="1" fill="#656565" />
<rect x="2" y="26" width="1" height="1" fill="#BABABA" />
<rect x="4" y="26" width="2" height="1" fill="#8A8A8A" />
<rect x="7" y="26" width="1" height="1" fill="#CACACA" />
<rect x="8" y="26" width="1" height="2" fill="#8A8A8A" />
<rect x="10" y="26" width="1" height="3" fill="#BABABA" />
<rect x="11" y="26" width="1" height="1" fill="#454545" />
<rect x="13" y="26" width="1" height="1" fill="#454545" />
<rect x="14" y="26" width="1" height="1" fill="#8A8A8A" />
<rect x="15" y="26" width="1" height="1" fill="#CACACA" />
<rect x="16" y="26" width="1" height="1" fill="#8A8A8A" />
<rect x="18" y="26" width="2" height="3" fill="#BABABA" />
<rect x="21" y="26" width="2" height="1" fill="#CACACA" />
<rect x="27" y="26" width="1" height="2" fill="#656565" />
<rect x="28" y="26" width="1" height="1" fill="#AAAAAA" />
<rect x="29" y="26" width="1" height="1" fill="#000000" />
<rect x="2" y="27" width="1" height="1" fill="#555555" />
<rect x="4" y="27" width="2" height="2" fill="#BABABA" />
<rect x="7" y="27" width="1" height="1" fill="#656565" />
<rect x="11" y="27" width="1" height="2" fill="#BABABA" />
<rect x="13" y="27" width="4" height="1" fill="#BABABA" />
<rect x="20" y="27" width="2" height="1" fill="#454545" />
<rect x="22" y="27" width="2" height="1" fill="#656565" />
<rect x="24" y="27" width="1" height="1" fill="#000000" />
<rect x="25" y="27" width="1" height="3" fill="#BABABA" />
<rect x="28" y="27" width="1" height="3" fill="#000000" />
<rect x="2" y="28" width="1" height="2" fill="#000000" />
<rect x="6" y="28" width="1" height="1" fill="#656565" />
<rect x="7" y="28" width="1" height="1" fill="#000000" />
<rect x="8" y="28" width="1" height="1" fill="#BABABA" />
<rect x="12" y="28" width="1" height="1" fill="#656565" />
<rect x="13" y="28" width="2" height="1" fill="#BABABA" />
<rect x="15" y="28" width="1" height="1" fill="#454545" />
<rect x="16" y="28" width="2" height="1" fill="#8A8A8A" />
<rect x="20" y="28" width="1" height="2" fill="#BABABA" />
<rect x="21" y="28" width="1" height="1" fill="#454545" />
<rect x="22" y="28" width="1" height="1" fill="#CACACA" />
<rect x="23" y="28" width="1" height="1" fill="#000000" />
<rect x="24" y="28" width="1" height="1" fill="#757575" />
<rect x="27" y="28" width="1" height="1" fill="#BABABA" />
<rect x="3" y="29" width="1" height="1" fill="#656565" />
<rect x="4" y="29" width="1" height="1" fill="#555555" />
<rect x="5" y="29" width="1" height="1" fill="#8A8A8A" />
<rect x="6" y="29" width="1" height="2" fill="#BABABA" />
<rect x="7" y="29" width="1" height="1" fill="#555555" />
<rect x="8" y="29" width="1" height="3" fill="#000000" />
<rect x="9" y="29" width="1" height="1" fill="#656565" />
<rect x="10" y="29" width="1" height="1" fill="#8A8A8A" />
<rect x="11" y="29" width="1" height="1" fill="#656565" />
<rect x="12" y="29" width="1" height="2" fill="#8A8A8A" />
<rect x="13" y="29" width="1" height="1" fill="#BABABA" />
<rect x="14" y="29" width="3" height="1" fill="#8A8A8A" />
<rect x="17" y="29" width="2" height="1" fill="#454545" />
<rect x="19" y="29" width="1" height="1" fill="#BABABA" />
<rect x="21" y="29" width="1" height="1" fill="#BABABA" />
<rect x="22" y="29" width="1" height="3" fill="#000000" />
<rect x="23" y="29" width="1" height="1" fill="#757575" />
<rect x="24" y="29" width="1" height="2" fill="#BABABA" />
<rect x="27" y="29" width="1" height="1" fill="#757575" />
<rect x="3" y="30" width="1" height="1" fill="#000000" />
<rect x="4" y="30" width="1" height="1" fill="#656565" />
<rect x="5" y="30" width="1" height="1" fill="#BABABA" />
<rect x="7" y="30" width="1" height="1" fill="#656565" />
<rect x="9" y="30" width="2" height="1" fill="#000000" />
<rect x="11" y="30" width="1" height="1" fill="#CACACA" />
<rect x="13" y="30" width="3" height="1" fill="#000000" />
<rect x="16" y="30" width="6" height="1" fill="#656565" />
<rect x="23" y="30" width="1" height="1" fill="#BABABA" />
<rect x="25" y="30" width="2" height="1" fill="#757575" />
<rect x="27" y="30" width="1" height="1" fill="#000000" />
<rect x="4" y="31" width="4" height="1" fill="#000000" />
<rect x="11" y="31" width="2" height="1" fill="#000000" />
<rect x="16" y="31" width="6" height="1" fill="#000000" />
<rect x="23" y="31" width="4" height="1" fill="#000000" />
</svg>