<?xml version="1.0" encoding="UTF-8" ?>
<svg version="1.1" width="64" height="64" xmlns="http://www.w3.org/2000/svg" shape-rendering="crispEdges">
<rect x="14" y="16" width="36" height="1" fill="#656565" />
<rect x="13" y="17" width="2" height="1" fill="#656565" />
<rect x="15" y="17" width="34" height="9" fill="#9BADB7" />
<rect x="49" y="17" width="2" height="1" fill="#656565" />
<rect x="12" y="18" width="2" height="1" fill="#656565" />
<rect x="14" y="18" width="1" height="7" fill="#9BADB7" />
<rect x="49" y="18" width="1" height="28" fill="#9BADB7" />
<rect x="50" y="18" width="2" height="1" fill="#656565" />
<rect x="11" y="19" width="2" height="1" fill="#656565" />
<rect x="13" y="19" width="1" height="5" fill="#9BADB7" />
<rect x="50" y="19" width="1" height="26" fill="#9BADB7" />
<rect x="51" y="19" width="2" height="1" fill="#656565" />
<rect x="11" y="20" width="1" height="4" fill="#656565" />
<rect x="12" y="20" width="1" height="3" fill="#9BADB7" />
<rect x="51" y="20" width="1" height="3" fill="#9BADB7" />
<rect x="52" y="20" width="1" height="4" fill="#656565" />
<rect x="12" y="23" width="1" height="2" fill="#656565" />
<rect x="51" y="23" width="1" height="8" fill="#656565" />
<rect x="13" y="24" width="1" height="2" fill="#656565" />
<rect x="14" y="25" width="1" height="2" fill="#656565" />
<rect x="15" y="26" width="1" height="3" fill="#656565" />
<rect x="16" y="26" width="33" height="21" fill="#9BADB7" />
<rect x="13" y="28" width="2" height="1" fill="#656565" />
<rect x="12" y="29" width="2" height="1" fill="#656565" />
<rect x="14" y="29" width="2" height="17" fill="#9BADB7" />
<rect x="11" y="30" width="1" height="17" fill="#696A6A" />
<rect x="12" y="30" width="1" height="1" fill="#656565" />
<rect x="13" y="30" width="1" height="15" fill="#9BADB7" />
<rect x="52" y="30" width="1" height="17" fill="#656565" />
<rect x="12" y="31" width="1" height="13" fill="#9BADB7" />
<rect x="51" y="31" width="1" height="13" fill="#9BADB7" />
<rect x="12" y="44" width="1" height="5" fill="#696A6A" />
<rect x="51" y="44" width="1" height="2" fill="#696A6A" />
<rect x="13" y="45" width="1" height="5" fill="#696A6A" />
<rect x="50" y="45" width="1" height="3" fill="#696A6A" />
<rect x="14" y="46" width="1" height="5" fill="#696A6A" />
<rect x="15" y="46" width="1" height="1" fill="#9BADB7" />
<rect x="49" y="46" width="1" height="3" fill="#696A6A" />
<rect x="51" y="46" width="1" height="2" fill="#454545" />
<rect x="15" y="47" width="1" height="1" fill="#454545" />
<rect x="16" y="47" width="33" height="1" fill="#696A6A" />
<rect x="52" y="47" width="1" height="2" fill="#696A6A" />
<rect x="15" y="48" width="1" height="1" fill="#696A6A" />
<rect x="16" y="48" width="1" height="1" fill="#656565" />
<rect x="17" y="48" width="1" height="2" fill="#696A6A" />
<rect x="18" y="48" width="1" height="1" fill="#656565" />
<rect x="19" y="48" width="1" height="1" fill="#454545" />
<rect x="20" y="48" width="1" height="2" fill="#696A6A" />
<rect x="21" y="48" width="2" height="1" fill="#757575" />
<rect x="23" y="48" width="5" height="1" fill="#696A6A" />
<rect x="28" y="48" width="2" height="1" fill="#757575" />
<rect x="30" y="48" width="1" height="1" fill="#323C39" />
<rect x="31" y="48" width="1" height="1" fill="#757575" />
<rect x="32" y="48" width="1" height="1" fill="#696A6A" />
<rect x="33" y="48" width="2" height="1" fill="#555555" />
<rect x="35" y="48" width="3" height="1" fill="#696A6A" />
<rect x="38" y="48" width="1" height="1" fill="#757575" />
<rect x="39" y="48" width="6" height="1" fill="#696A6A" />
<rect x="45" y="48" width="1" height="1" fill="#323C39" />
<rect x="46" y="48" width="1" height="1" fill="#757575" />
<rect x="47" y="48" width="1" height="1" fill="#656565" />
<rect x="48" y="48" width="1" height="5" fill="#696A6A" />
<rect x="50" y="48" width="1" height="1" fill="#454545" />
<rect x="51" y="48" width="1" height="2" fill="#696A6A" />
<rect x="15" y="49" width="1" height="1" fill="#454545" />
<rect x="16" y="49" width="1" height="2" fill="#696A6A" />
<rect x="18" y="49" width="1" height="1" fill="#757575" />
<rect x="19" y="49" width="1" height="1" fill="#696A6A" />
<rect x="21" y="49" width="1" height="2" fill="#696A6A" />
<rect x="22" y="49" width="2" height="1" fill="#757575" />
<rect x="24" y="49" width="3" height="1" fill="#696A6A" />
<rect x="27" y="49" width="1" height="1" fill="#757575" />
<rect x="28" y="49" width="1" height="2" fill="#696A6A" />
<rect x="29" y="49" width="1" height="1" fill="#757575" />
<rect x="30" y="49" width="2" height="2" fill="#696A6A" />
<rect x="32" y="49" width="1" height="1" fill="#757575" />
<rect x="33" y="49" width="3" height="1" fill="#696A6A" />
<rect x="36" y="49" width="1" height="2" fill="#656565" />
<rect x="37" y="49" width="1" height="1" fill="#757575" />
<rect x="38" y="49" width="2" height="1" fill="#323C39" />
<rect x="40" y="49" width="1" height="4" fill="#696A6A" />
<rect x="41" y="49" width="1" height="1" fill="#757575" />
<rect x="42" y="49" width="2" height="2" fill="#656565" />
<rect x="44" y="49" width="1" height="1" fill="#757575" />
<rect x="45" y="49" width="1" height="1" fill="#656565" />
<rect x="46" y="49" width="1" height="4" fill="#696A6A" />
<rect x="47" y="49" width="1" height="1" fill="#757575" />
<rect x="49" y="49" width="1" height="1" fill="#454545" />
<rect x="50" y="49" width="1" height="2" fill="#696A6A" />
<rect x="15" y="50" width="1" height="2" fill="#696A6A" />
<rect x="17" y="50" width="1" height="2" fill="#757575" />
<rect x="18" y="50" width="1" height="3" fill="#696A6A" />
<rect x="19" y="50" width="2" height="1" fill="#656565" />
<rect x="22" y="50" width="1" height="2" fill="#696A6A" />
<rect x="23" y="50" width="1" height="1" fill="#757575" />
<rect x="24" y="50" width="2" height="1" fill="#696A6A" />
<rect x="26" y="50" width="1" height="1" fill="#757575" />
<rect x="27" y="50" width="1" height="1" fill="#696A6A" />
<rect x="29" y="50" width="1" height="2" fill="#656565" />
<rect x="32" y="50" width="2" height="3" fill="#696A6A" />
<rect x="34" y="50" width="2" height="1" fill="#757575" />
<rect x="37" y="50" width="2" height="1" fill="#696A6A" />
<rect x="39" y="50" width="1" height="2" fill="#656565" />
<rect x="41" y="50" width="1" height="2" fill="#696A6A" />
<rect x="44" y="50" width="2" height="1" fill="#696A6A" />
<rect x="47" y="50" width="1" height="3" fill="#696A6A" />
<rect x="49" y="50" width="1" height="2" fill="#696A6A" />
<rect x="16" y="51" width="1" height="1" fill="#757575" />
<rect x="19" y="51" width="1" height="1" fill="#454545" />
<rect x="20" y="51" width="1" height="1" fill="#656565" />
<rect x="21" y="51" width="1" height="1" fill="#454545" />
<rect x="23" y="51" width="1" height="2" fill="#696A6A" />
<rect x="24" y="51" width="4" height="1" fill="#656565" />
<rect x="28" y="51" width="1" height="1" fill="#555555" />
<rect x="30" y="51" width="1" height="2" fill="#696A6A" />
<rect x="31" y="51" width="1" height="1" fill="#757575" />
<rect x="34" y="51" width="3" height="2" fill="#696A6A" />
<rect x="37" y="51" width="2" height="1" fill="#656565" />
<rect x="42" y="51" width="1" height="2" fill="#696A6A" />
<rect x="43" y="51" width="2" height="1" fill="#454545" />
<rect x="45" y="51" width="1" height="2" fill="#696A6A" />
<rect x="16" y="52" width="2" height="1" fill="#696A6A" />
<rect x="19" y="52" width="3" height="1" fill="#696A6A" />
<rect x="22" y="52" width="1" height="1" fill="#454545" />
<rect x="24" y="52" width="2" height="1" fill="#656565" />
<rect x="26" y="52" width="4" height="1" fill="#696A6A" />
<rect x="31" y="52" width="1" height="1" fill="#696A6A" />
<rect x="37" y="52" width="3" height="1" fill="#696A6A" />
<rect x="41" y="52" width="1" height="1" fill="#454545" />
<rect x="43" y="52" width="2" height="1" fill="#696A6A" />
</svg>