<?xml version="1.0" encoding="UTF-8" ?>
<svg version="1.1" width="32" height="32" xmlns="http://www.w3.org/2000/svg" shape-rendering="crispEdges">
<rect x="15" y="3" width="5" height="1" fill="#D9CCBA" />
<rect x="15" y="4" width="1" height="1" fill="#D9CCBA" />
<rect x="16" y="4" width="4" height="4" fill="#F8F6EF" />
<rect x="20" y="4" width="1" height="1" fill="#D9CCBA" />
<rect x="14" y="5" width="1" height="1" fill="#D9CCBA" />
<rect x="15" y="5" width="1" height="9" fill="#F8F6EF" />
<rect x="20" y="5" width="1" height="8" fill="#F8F6EF" />
<rect x="13" y="6" width="1" height="2" fill="#D9CCBA" />
<rect x="14" y="6" width="1" height="7" fill="#F8F6EF" />
<rect x="21" y="6" width="1" height="2" fill="#D9CCBA" />
<rect x="12" y="8" width="1" height="5" fill="#D9CCBA" />
<rect x="13" y="8" width="1" height="5" fill="#F8F6EF" />
<rect x="16" y="8" width="1" height="2" fill="#C4B5A3" />
<rect x="17" y="8" width="2" height="2" fill="#F8F6EF" />
<rect x="19" y="8" width="1" height="2" fill="#3B3B3B" />
<rect x="21" y="8" width="2" height="3" fill="#F8F6EF" />
<rect x="23" y="8" width="2" height="1" fill="#3B3B3B" />
<rect x="23" y="9" width="1" height="2" fill="#F8F6EF" />
<rect x="24" y="9" width="1" height="1" fill="#3B3B3B" />
<rect x="16" y="10" width="1" height="4" fill="#F8F6EF" />
<rect x="17" y="10" width="1" height="4" fill="#C4B5A3" />
<rect x="18" y="10" width="2" height="3" fill="#F8F6EF" />
<rect x="24" y="10" width="1" height="1" fill="#C4B5A3" />
<rect x="21" y="11" width="1" height="1" fill="#F8F6EF" />
<rect x="22" y="11" width="2" height="1" fill="#C4B5A3" />
<rect x="21" y="12" width="1" height="1" fill="#C4B5A3" />
<rect x="13" y="13" width="2" height="1" fill="#D9CCBA" />
<rect x="18" y="13" width="3" height="2" fill="#D9CCBA" />
<rect x="14" y="14" width="1" height="1" fill="#A4D2E1" />
<rect x="15" y="14" width="3" height="1" fill="#D9CCBA" />
<rect x="14" y="15" width="1" height="10" fill="#F8F6EF" />
<rect x="15" y="15" width="6" height="1" fill="#A4D2E1" />
<rect x="13" y="16" width="1" height="1" fill="#D9CCBA" />
<rect x="15" y="16" width="5" height="7" fill="#F8F6EF" />
<rect x="20" y="16" width="1" height="1" fill="#D9CCBA" />
<rect x="12" y="17" width="1" height="2" fill="#D9CCBA" />
<rect x="13" y="17" width="1" height="7" fill="#F8F6EF" />
<rect x="20" y="17" width="1" height="5" fill="#F8F6EF" />
<rect x="21" y="17" width="1" height="1" fill="#D9CCBA" />
<rect x="21" y="18" width="1" height="2" fill="#C4B5A3" />
<rect x="11" y="19" width="1" height="1" fill="#D9CCBA" />
<rect x="12" y="19" width="1" height="5" fill="#F8F6EF" />
<rect x="10" y="20" width="1" height="2" fill="#D9CCBA" />
<rect x="11" y="20" width="1" height="11" fill="#F8F6EF" />
<rect x="21" y="20" width="1" height="3" fill="#D9CCBA" />
<rect x="9" y="22" width="1" height="2" fill="#D9CCBA" />
<rect x="10" y="22" width="1" height="8" fill="#F8F6EF" />
<rect x="20" y="22" width="1" height="1" fill="#C4B5A3" />
<rect x="4" y="23" width="3" height="1" fill="#D9CCBA" />
<rect x="15" y="23" width="1" height="3" fill="#D9CCBA" />
<rect x="16" y="23" width="3" height="6" fill="#F8F6EF" />
<rect x="19" y="23" width="2" height="1" fill="#D9CCBA" />
<rect x="4" y="24" width="1" height="3" fill="#D9CCBA" />
<rect x="5" y="24" width="2" height="3" fill="#F8F6EF" />
<rect x="7" y="24" width="1" height="2" fill="#D9CCBA" />
<rect x="9" y="24" width="1" height="5" fill="#F8F6EF" />
<rect x="12" y="24" width="2" height="1" fill="#D9CCBA" />
<rect x="19" y="24" width="1" height="5" fill="#C4B5A3" />
<rect x="20" y="24" width="1" height="6" fill="#D9CCBA" />
<rect x="12" y="25" width="2" height="6" fill="#F8F6EF" />
<rect x="14" y="25" width="1" height="1" fill="#D9CCBA" />
<rect x="7" y="26" width="1" height="3" fill="#F8F6EF" />
<rect x="14" y="26" width="1" height="3" fill="#F8F6EF" />
<rect x="15" y="26" width="1" height="3" fill="#C4B5A3" />
<rect x="5" y="27" width="1" height="1" fill="#D9CCBA" />
<rect x="6" y="27" width="1" height="1" fill="#F8F6EF" />
<rect x="8" y="27" width="1" height="1" fill="#D9CCBA" />
<rect x="6" y="28" width="1" height="1" fill="#D9CCBA" />
<rect x="8" y="28" width="1" height="1" fill="#F8F6EF" />
<rect x="7" y="29" width="2" height="1" fill="#D9CCBA" />
<rect x="9" y="29" width="1" height="1" fill="#C4B5A3" />
<rect x="14" y="29" width="3" height="1" fill="#D9CCBA" />
<rect x="17" y="29" width="3" height="2" fill="#F8F6EF" />
<rect x="21" y="29" width="1" height="2" fill="#D9CCBA" />
<rect x="10" y="30" width="1" height="1" fill="#D9CCBA" />
<rect x="14" y="30" width="2" height="1" fill="#F8F6EF" />
<rect x="20" y="30" width="1" height="1" fill="#C4B5A3" />
</svg>