<?xml version="1.0" encoding="UTF-8" ?>
<svg version="1.1" width="32" height="32" xmlns="http://www.w3.org/2000/svg" shape-rendering="crispEdges">
<rect x="12" y="3" width="4" height="1" fill="#D9CCBA" />
<rect x="11" y="4" width="1" height="1" fill="#D9CCBA" />
<rect x="12" y="4" width="4" height="4" fill="#EDE9E0" />
<rect x="16" y="4" width="1" height="1" fill="#D9CCBA" />
<rect x="11" y="5" width="1" height="7" fill="#EDE9E0" />
<rect x="16" y="5" width="1" height="8" fill="#EDE9E0" />
<rect x="17" y="5" width="1" height="1" fill="#D9CCBA" />
<rect x="10" y="6" width="1" height="2" fill="#D9CCBA" />
<rect x="17" y="6" width="1" height="6" fill="#EDE9E0" />
<rect x="18" y="6" width="1" height="2" fill="#D9CCBA" />
<rect x="7" y="8" width="2" height="1" fill="#3B3B3B" />
<rect x="9" y="8" width="2" height="3" fill="#EDE9E0" />
<rect x="12" y="8" width="1" height="2" fill="#3B3B3B" />
<rect x="13" y="8" width="2" height="2" fill="#EDE9E0" />
<rect x="15" y="8" width="1" height="2" fill="#C4B5A3" />
<rect x="18" y="8" width="1" height="4" fill="#EDE9E0" />
<rect x="19" y="8" width="1" height="4" fill="#D9CCBA" />
<rect x="7" y="9" width="1" height="1" fill="#3B3B3B" />
<rect x="8" y="9" width="1" height="2" fill="#EDE9E0" />
<rect x="7" y="10" width="1" height="1" fill="#C4B5A3" />
<rect x="12" y="10" width="2" height="2" fill="#EDE9E0" />
<rect x="14" y="10" width="1" height="3" fill="#C4B5A3" />
<rect x="15" y="10" width="1" height="3" fill="#EDE9E0" />
<rect x="8" y="11" width="2" height="1" fill="#C4B5A3" />
<rect x="10" y="11" width="1" height="1" fill="#EDE9E0" />
<rect x="10" y="12" width="1" height="1" fill="#C4B5A3" />
<rect x="11" y="12" width="3" height="2" fill="#D9CCBA" />
<rect x="17" y="12" width="2" height="1" fill="#D9CCBA" />
<rect x="14" y="13" width="3" height="1" fill="#D9CCBA" />
<rect x="17" y="13" width="1" height="1" fill="#A4D2E1" />
<rect x="11" y="14" width="6" height="1" fill="#A4D2E1" />
<rect x="17" y="14" width="1" height="10" fill="#EDE9E0" />
<rect x="11" y="15" width="1" height="1" fill="#D9CCBA" />
<rect x="12" y="15" width="5" height="7" fill="#EDE9E0" />
<rect x="18" y="15" width="1" height="1" fill="#D9CCBA" />
<rect x="10" y="16" width="1" height="1" fill="#D9CCBA" />
<rect x="11" y="16" width="1" height="5" fill="#EDE9E0" />
<rect x="18" y="16" width="1" height="7" fill="#EDE9E0" />
<rect x="19" y="16" width="1" height="2" fill="#D9CCBA" />
<rect x="10" y="17" width="1" height="2" fill="#C4B5A3" />
<rect x="19" y="18" width="1" height="5" fill="#EDE9E0" />
<rect x="20" y="18" width="1" height="1" fill="#D9CCBA" />
<rect x="10" y="19" width="1" height="3" fill="#D9CCBA" />
<rect x="20" y="19" width="1" height="11" fill="#EDE9E0" />
<rect x="21" y="19" width="1" height="2" fill="#D9CCBA" />
<rect x="11" y="21" width="1" height="1" fill="#C4B5A3" />
<rect x="21" y="21" width="1" height="8" fill="#EDE9E0" />
<rect x="22" y="21" width="1" height="2" fill="#D9CCBA" />
<rect x="11" y="22" width="2" height="1" fill="#D9CCBA" />
<rect x="13" y="22" width="3" height="6" fill="#EDE9E0" />
<rect x="16" y="22" width="1" height="3" fill="#D9CCBA" />
<rect x="25" y="22" width="3" height="1" fill="#D9CCBA" />
<rect x="11" y="23" width="1" height="6" fill="#D9CCBA" />
<rect x="12" y="23" width="1" height="5" fill="#C4B5A3" />
<rect x="18" y="23" width="2" height="1" fill="#D9CCBA" />
<rect x="22" y="23" width="1" height="5" fill="#EDE9E0" />
<rect x="24" y="23" width="1" height="2" fill="#D9CCBA" />
<rect x="25" y="23" width="2" height="3" fill="#EDE9E0" />
<rect x="27" y="23" width="1" height="3" fill="#D9CCBA" />
<rect x="17" y="24" width="1" height="1" fill="#D9CCBA" />
<rect x="18" y="24" width="2" height="6" fill="#EDE9E0" />
<rect x="16" y="25" width="1" height="3" fill="#C4B5A3" />
<rect x="17" y="25" width="1" height="3" fill="#EDE9E0" />
<rect x="24" y="25" width="1" height="3" fill="#EDE9E0" />
<rect x="23" y="26" width="1" height="1" fill="#D9CCBA" />
<rect x="25" y="26" width="1" height="1" fill="#EDE9E0" />
<rect x="26" y="26" width="1" height="1" fill="#D9CCBA" />
<rect x="23" y="27" width="1" height="1" fill="#EDE9E0" />
<rect x="25" y="27" width="1" height="1" fill="#D9CCBA" />
<rect x="10" y="28" width="1" height="2" fill="#D9CCBA" />
<rect x="12" y="28" width="3" height="2" fill="#EDE9E0" />
<rect x="15" y="28" width="3" height="1" fill="#D9CCBA" />
<rect x="22" y="28" width="1" height="1" fill="#C4B5A3" />
<rect x="23" y="28" width="2" height="1" fill="#D9CCBA" />
<rect x="11" y="29" width="1" height="1" fill="#C4B5A3" />
<rect x="16" y="29" width="2" height="1" fill="#EDE9E0" />
<rect x="21" y="29" width="1" height="1" fill="#D9CCBA" />
</svg>