<?xml version="1.0" encoding="UTF-8" ?>
<svg version="1.1" width="32" height="32" xmlns="http://www.w3.org/2000/svg" shape-rendering="crispEdges">
<rect x="6" y="4" width="2" height="1" fill="#000000" />
<rect x="24" y="4" width="2" height="1" fill="#000000" />
<rect x="5" y="5" width="1" height="1" fill="#000000" />
<rect x="6" y="5" width="2" height="10" fill="#FFFFFF" />
<rect x="8" y="5" width="1" height="1" fill="#000000" />
<rect x="14" y="5" width="4" height="1" fill="#000000" />
<rect x="23" y="5" width="1" height="1" fill="#000000" />
<rect x="24" y="5" width="2" height="10" fill="#FFFFFF" />
<rect x="26" y="5" width="1" height="1" fill="#000000" />
<rect x="4" y="6" width="1" height="2" fill="#000000" />
<rect x="5" y="6" width="1" height="10" fill="#FFFFFF" />
<rect x="8" y="6" width="1" height="9" fill="#FFFFFF" />
<rect x="9" y="6" width="1" height="1" fill="#000000" />
<rect x="12" y="6" width="2" height="1" fill="#000000" />
<rect x="14" y="6" width="4" height="10" fill="#FFFFFF" />
<rect x="18" y="6" width="2" height="1" fill="#000000" />
<rect x="22" y="6" width="1" height="1" fill="#000000" />
<rect x="23" y="6" width="1" height="9" fill="#FFFFFF" />
<rect x="26" y="6" width="1" height="10" fill="#FFFFFF" />
<rect x="27" y="6" width="1" height="2" fill="#000000" />
<rect x="9" y="7" width="1" height="3" fill="#FFFFFF" />
<rect x="10" y="7" width="2" height="1" fill="#000000" />
<rect x="12" y="7" width="2" height="5" fill="#FFFFFF" />
<rect x="18" y="7" width="2" height="5" fill="#FFFFFF" />
<rect x="20" y="7" width="2" height="1" fill="#000000" />
<rect x="22" y="7" width="1" height="3" fill="#FFFFFF" />
<rect x="3" y="8" width="1" height="2" fill="#000000" />
<rect x="4" y="8" width="1" height="8" fill="#FFFFFF" />
<rect x="10" y="8" width="2" height="4" fill="#FFFFFF" />
<rect x="20" y="8" width="2" height="4" fill="#FFFFFF" />
<rect x="27" y="8" width="1" height="8" fill="#FFFFFF" />
<rect x="28" y="8" width="1" height="2" fill="#000000" />
<rect x="2" y="10" width="1" height="5" fill="#000000" />
<rect x="3" y="10" width="1" height="5" fill="#FFFFFF" />
<rect x="9" y="10" width="1" height="5" fill="#000000" />
<rect x="22" y="10" width="1" height="5" fill="#000000" />
<rect x="28" y="10" width="1" height="5" fill="#FFFFFF" />
<rect x="29" y="10" width="1" height="5" fill="#000000" />
<rect x="10" y="12" width="1" height="16" fill="#FFFFFF" />
<rect x="11" y="12" width="2" height="1" fill="#000000" />
<rect x="13" y="12" width="1" height="1" fill="#FFFFFF" />
<rect x="18" y="12" width="1" height="1" fill="#FFFFFF" />
<rect x="19" y="12" width="2" height="1" fill="#000000" />
<rect x="21" y="12" width="1" height="16" fill="#FFFFFF" />
<rect x="11" y="13" width="1" height="2" fill="#000000" />
<rect x="12" y="13" width="1" height="1" fill="#FFFFFF" />
<rect x="13" y="13" width="1" height="1" fill="#000000" />
<rect x="18" y="13" width="1" height="1" fill="#000000" />
<rect x="19" y="13" width="1" height="1" fill="#FFFFFF" />
<rect x="20" y="13" width="1" height="2" fill="#000000" />
<rect x="12" y="14" width="2" height="1" fill="#CBDBFC" />
<rect x="18" y="14" width="2" height="1" fill="#CBDBFC" />
<rect x="3" y="15" width="1" height="1" fill="#000000" />
<rect x="6" y="15" width="1" height="1" fill="#FFFFFF" />
<rect x="7" y="15" width="2" height="1" fill="#000000" />
<rect x="9" y="15" width="1" height="1" fill="#323C39" />
<rect x="11" y="15" width="3" height="13" fill="#FFFFFF" />
<rect x="18" y="15" width="3" height="13" fill="#FFFFFF" />
<rect x="22" y="15" width="1" height="1" fill="#323C39" />
<rect x="23" y="15" width="2" height="1" fill="#000000" />
<rect x="25" y="15" width="1" height="1" fill="#FFFFFF" />
<rect x="28" y="15" width="1" height="1" fill="#000000" />
<rect x="4" y="16" width="4" height="1" fill="#000000" />
<rect x="8" y="16" width="1" height="1" fill="#323C39" />
<rect x="9" y="16" width="1" height="12" fill="#FFFFFF" />
<rect x="14" y="16" width="4" height="1" fill="#000000" />
<rect x="22" y="16" width="1" height="12" fill="#FFFFFF" />
<rect x="23" y="16" width="1" height="2" fill="#323C39" />
<rect x="24" y="16" width="4" height="1" fill="#000000" />
<rect x="7" y="17" width="1" height="6" fill="#000000" />
<rect x="8" y="17" width="1" height="11" fill="#FFFFFF" />
<rect x="14" y="17" width="1" height="11" fill="#FFFFFF" />
<rect x="15" y="17" width="2" height="1" fill="#000000" />
<rect x="17" y="17" width="1" height="12" fill="#FFFFFF" />
<rect x="24" y="17" width="1" height="6" fill="#000000" />
<rect x="15" y="18" width="2" height="1" fill="#AC3232" />
<rect x="23" y="18" width="1" height="10" fill="#FFFFFF" />
<rect x="15" y="19" width="2" height="9" fill="#FFFFFF" />
<rect x="6" y="23" width="1" height="2" fill="#000000" />
<rect x="7" y="23" width="1" height="5" fill="#FFFFFF" />
<rect x="24" y="23" width="1" height="5" fill="#FFFFFF" />
<rect x="25" y="23" width="1" height="2" fill="#000000" />
<rect x="5" y="25" width="1" height="2" fill="#000000" />
<rect x="6" y="25" width="1" height="3" fill="#FFFFFF" />
<rect x="25" y="25" width="1" height="3" fill="#FFFFFF" />
<rect x="26" y="25" width="1" height="2" fill="#000000" />
<rect x="4" y="27" width="1" height="4" fill="#000000" />
<rect x="5" y="27" width="1" height="2" fill="#FFFFFF" />
<rect x="26" y="27" width="1" height="1" fill="#696A6A" />
<rect x="27" y="27" width="1" height="4" fill="#000000" />
<rect x="6" y="28" width="1" height="1" fill="#696A6A" />
<rect x="7" y="28" width="1" height="1" fill="#323C39" />
<rect x="8" y="28" width="1" height="1" fill="#696A6A" />
<rect x="9" y="28" width="3" height="1" fill="#000000" />
<rect x="12" y="28" width="2" height="1" fill="#FFFFFF" />
<rect x="14" y="28" width="3" height="1" fill="#696A6A" />
<rect x="18" y="28" width="2" height="1" fill="#FFFFFF" />
<rect x="20" y="28" width="3" height="1" fill="#000000" />
<rect x="23" y="28" width="1" height="1" fill="#323C39" />
<rect x="24" y="28" width="2" height="1" fill="#696A6A" />
<rect x="26" y="28" width="1" height="2" fill="#323C39" />
<rect x="5" y="29" width="2" height="1" fill="#323C39" />
<rect x="7" y="29" width="2" height="1" fill="#000000" />
<rect x="11" y="29" width="1" height="2" fill="#000000" />
<rect x="12" y="29" width="2" height="1" fill="#696A6A" />
<rect x="14" y="29" width="1" height="1" fill="#323C39" />
<rect x="15" y="29" width="2" height="1" fill="#000000" />
<rect x="17" y="29" width="1" height="1" fill="#323C39" />
<rect x="18" y="29" width="2" height="1" fill="#696A6A" />
<rect x="20" y="29" width="1" height="2" fill="#000000" />
<rect x="23" y="29" width="2" height="1" fill="#000000" />
<rect x="25" y="29" width="1" height="1" fill="#323C39" />
<rect x="5" y="30" width="2" height="1" fill="#000000" />
<rect x="12" y="30" width="2" height="1" fill="#323C39" />
<rect x="14" y="30" width="1" height="1" fill="#000000" />
<rect x="17" y="30" width="1" height="1" fill="#000000" />
<rect x="18" y="30" width="2" height="1" fill="#323C39" />
<rect x="25" y="30" width="2" height="1" fill="#000000" />
<rect x="12" y="31" width="2" height="1" fill="#000000" />
<rect x="18" y="31" width="2" height="1" fill="#000000" />
</svg>